<?xml version="1.0" encoding="UTF-8"?>
<svg width="512pt" height="512pt" version="1.1" viewBox="0 0 512 512" xmlns="http://www.w3.org/2000/svg">
 <path d="m384 176h-256c-5.7148 0-11-3.0508-13.855-8-2.8594-4.9492-2.8594-11.051 0-16 2.8555-4.9492 8.1406-8 13.855-8h256c5.7148 0 11 3.0508 13.855 8 2.8594 4.9492 2.8594 11.051 0 16-2.8555 4.9492-8.1406 8-13.855 8z"/>
 <path d="m384 240h-256c-5.7148 0-11-3.0508-13.855-8-2.8594-4.9492-2.8594-11.051 0-16 2.8555-4.9492 8.1406-8 13.855-8h256c5.7148 0 11 3.0508 13.855 8 2.8594 4.9492 2.8594 11.051 0 16-2.8555 4.9492-8.1406 8-13.855 8z"/>
 <path d="m384 304h-256c-5.7148 0-11-3.0508-13.855-8-2.8594-4.9492-2.8594-11.051 0-16 2.8555-4.9492 8.1406-8 13.855-8h256c5.7148 0 11 3.0508 13.855 8 2.8594 4.9492 2.8594 11.051 0 16-2.8555 4.9492-8.1406 8-13.855 8z"/>
 <path d="m384 368h-256c-5.7148 0-11-3.0508-13.855-8-2.8594-4.9492-2.8594-11.051 0-16 2.8555-4.9492 8.1406-8 13.855-8h256c5.7148 0 11 3.0508 13.855 8 2.8594 4.9492 2.8594 11.051 0 16-2.8555 4.9492-8.1406 8-13.855 8z"/>
</svg>
